<svg width="20" height="21" viewBox="0 0 20 21" fill="none" xmlns="http://www.w3.org/2000/svg">
<path d="M10 20.5C4.47967 20.494 0.00606237 16.0204 0 10.5V10.3C0.109931 4.80455 4.63459 0.427974 10.1307 0.500898C15.6268 0.573822 20.0337 5.0689 19.9978 10.5654C19.9619 16.0618 15.4966 20.4989 10 20.5ZM10 2.50002C5.58172 2.50002 2 6.08174 2 10.5C2 14.9183 5.58172 18.5 10 18.5C14.4183 18.5 18 14.9183 18 10.5C17.995 6.0838 14.4162 2.50498 10 2.50002ZM8.55 15.5L7.136 14.085L10.671 10.55L7.136 7.01502L8.55 5.60002L13.5 10.55L8.551 15.5H8.55Z" fill="#3E5853"/>
</svg>
