<svg width="142" height="40" viewBox="0 0 142 40" fill="none" xmlns="http://www.w3.org/2000/svg">
<path d="M49.4824 32H62.1936V29.5772H52.1707V8.76811H49.4824V32ZM71.3095 32.4314C75.0598 32.4314 76.6528 29.9755 77.0843 29.2786H77.2834V29.4445C77.3166 30.938 78.3786 32 79.8057 32H81.4983V29.6768H80.7018C80.1708 29.6768 79.8389 29.4113 79.8389 28.8803V14.742H77.1838V17.5299H76.9847C76.4869 16.6338 74.6947 14.3106 71.1104 14.3106C66.1985 14.3106 62.8796 18.0941 62.8796 23.4042C62.8796 28.6812 66.3644 32.4314 71.3095 32.4314ZM71.4423 30.0751C68.1234 30.0751 65.5679 27.4532 65.5679 23.4374C65.5679 19.488 68.0238 16.7001 71.4091 16.7001C74.6283 16.7001 77.2834 19.1561 77.2834 23.4374C77.2834 27.0549 75.0598 30.0751 71.4423 30.0751ZM91.3187 32H93.7747V29.71H91.2855C89.4602 29.71 88.6969 28.9135 88.6969 27.0549V16.9657H94.007V14.742H88.6969V9.73058H86.2409V14.742H82.8225V16.9657H86.075V27.0881C86.075 30.5729 88.1658 32 91.3187 32ZM103.918 32.4314C107.669 32.4314 109.262 29.9755 109.693 29.2786H109.892V29.4445C109.926 30.938 110.988 32 112.415 32H114.107V29.6768H113.311C112.78 29.6768 112.448 29.4113 112.448 28.8803V14.742H109.793V17.5299H109.594C109.096 16.6338 107.304 14.3106 103.719 14.3106C98.8074 14.3106 95.4885 18.0941 95.4885 23.4042C95.4885 28.6812 98.9733 32.4314 103.918 32.4314ZM104.051 30.0751C100.732 30.0751 98.1768 27.4532 98.1768 23.4374C98.1768 19.488 100.633 16.7001 104.018 16.7001C107.237 16.7001 109.892 19.1561 109.892 23.4374C109.892 27.0549 107.669 30.0751 104.051 30.0751ZM125.62 32.4314C130.532 32.4314 134.05 28.6812 134.05 23.4042C134.05 18.0941 130.698 14.3106 125.819 14.3106C122.202 14.3106 120.443 16.6338 119.912 17.5299H119.713V7.10869H117.091V32H119.613V29.2786H119.812C120.244 29.9091 121.87 32.4314 125.62 32.4314ZM125.454 30.0751C121.87 30.0751 119.613 27.0549 119.613 23.4374C119.613 19.1561 122.268 16.7001 125.521 16.7001C128.906 16.7001 131.362 19.488 131.362 23.4374C131.362 27.4532 128.773 30.0751 125.454 30.0751Z" fill="#3E5853"/>
<path d="M13.8137 5.07959L15.7982 3.93973L16.4033 4.99315L17.4567 4.38809L18.8973 3.56063L20.338 4.38809L21.3914 4.99315L21.9965 3.93973L23.981 5.07959L23.3759 6.13302L24.4294 6.73808L28.5208 9.08807L29.5742 9.69314L30.1793 8.63971L32.1638 9.77958L31.5587 10.833L32.6122 11.4381L34.0481 12.2628V13.9096V15.1245H35.2629V17.3948H34.0481V18.6096V23.3096V24.5244H35.2629V26.7947H34.0481V28.0096V29.6564L32.6122 30.4811L31.5587 31.0862L32.1638 32.1396L30.1793 33.2795L29.5742 32.2261L28.5208 32.8311L24.4294 35.1811L23.3759 35.7862L23.981 36.8396L21.9965 37.9795L21.3914 36.926L20.338 37.5311L18.8973 38.3586L17.4567 37.5311L16.4033 36.926L15.7982 37.9795L13.8137 36.8396L14.4187 35.7862L13.3653 35.1811L9.27392 32.8311L8.22049 32.2261L7.61543 33.2795L5.63089 32.1396L6.23595 31.0862L5.18252 30.4811L3.74659 29.6564V28.0096V26.7947H2.53176V24.5244H3.74659V23.3096V18.6096V17.3948H2.53176V15.1245H3.74659V13.9096V12.2628L5.18252 11.4381L6.23595 10.833L5.63089 9.77958L7.61543 8.63971L8.22049 9.69314L9.27391 9.08807L13.3653 6.73808L14.4187 6.13302L13.8137 5.07959Z" fill="#376A67" stroke="#C0D8C3" stroke-width="2.42966" stroke-linecap="square" stroke-dasharray="5.4 5.4"/>
<g filter="url(#filter0_f)">
<path d="M18.7624 9.17871L18.9971 16.4426L19.9899 9.24304L19.4641 16.4917L21.204 9.43533L19.9233 16.5893L22.3913 9.75347L20.3699 16.7344L23.5388 10.194L20.7988 16.9254L24.6341 10.752L21.2054 17.1602L25.665 11.4215L21.5852 17.4361L26.6202 12.1951L21.9342 17.7503L27.4894 13.0642L22.2483 18.0992L28.263 14.0195L22.5243 18.479L28.9324 15.0504L22.7591 18.8857L29.4905 16.1456L22.95 19.3146L29.931 17.2932L23.0951 19.7611L30.2491 18.4805L23.1927 20.2204L30.4414 19.6945L23.2418 20.6873L30.5057 20.9221L23.2418 21.1568L30.4414 22.1496L23.1927 21.6238L30.2491 23.3636L23.0951 22.083L29.931 24.551L22.95 22.5295L29.4905 25.6985L22.7591 22.9585L28.9324 26.7937L22.5243 23.3651L28.263 27.8246L22.2483 23.7449L27.4894 28.7799L21.9342 24.0938L26.6202 29.6491L21.5852 24.408L25.665 30.4226L21.2054 24.684L24.6341 31.0921L20.7988 24.9187L23.5388 31.6501L20.3699 25.1097L22.3913 32.0906L19.9233 25.2548L21.204 32.4088L19.4641 25.3524L19.9899 32.6011L18.9971 25.4015L18.7624 32.6654L18.5276 25.4015L17.5349 32.6011L18.0607 25.3524L16.3208 32.4088L17.6014 25.2548L15.1335 32.0906L17.1549 25.1097L13.9859 31.6501L16.726 24.9187L12.8907 31.0921L16.3194 24.684L11.8598 30.4226L15.9395 24.408L10.9046 29.6491L15.5906 24.0938L10.0354 28.7799L15.2765 23.7449L9.26182 27.8246L15.0005 23.3651L8.59235 26.7937L14.7657 22.9585L8.03431 25.6985L14.5748 22.5295L7.5938 24.551L14.4297 22.083L7.27566 23.3636L14.3321 21.6238L7.08337 22.1496L14.283 21.1568L7.01904 20.9221L14.283 20.6873L7.08337 19.6945L14.3321 20.2204L7.27566 18.4805L14.4297 19.7611L7.5938 17.2932L14.5748 19.3146L8.03431 16.1456L14.7657 18.8857L8.59235 15.0504L15.0005 18.479L9.26182 14.0195L15.2765 18.0992L10.0354 13.0642L15.5906 17.7503L10.9046 12.1951L15.9395 17.4361L11.8598 11.4215L16.3194 17.1602L12.8907 10.752L16.726 16.9254L13.9859 10.194L17.1549 16.7344L15.1335 9.75347L17.6014 16.5893L16.3208 9.43533L18.0607 16.4917L17.5349 9.24304L18.5276 16.4426L18.7624 9.17871Z" fill="#E66320"/>
</g>
<defs>
<filter id="filter0_f" x="5.9392" y="8.09886" width="25.6464" height="25.6464" filterUnits="userSpaceOnUse" color-interpolation-filters="sRGB">
<feFlood flood-opacity="0" result="BackgroundImageFix"/>
<feBlend mode="normal" in="SourceGraphic" in2="BackgroundImageFix" result="shape"/>
<feGaussianBlur stdDeviation="0.539924" result="effect1_foregroundBlur"/>
</filter>
</defs>
</svg>
